<?xml version="1.0" encoding="UTF-8"?>
<svg width="370px" height="26px" viewBox="0 0 370 26" version="1.1" xmlns="http://www.w3.org/2000/svg" xmlns:xlink="http://www.w3.org/1999/xlink">
    <!-- Generator: Sketch 42 (36781) - http://www.bohemiancoding.com/sketch -->
    <title>Group 3</title>
    <desc>Created with Sketch.</desc>
    <defs></defs>
    <g id="FINALS" stroke="none" stroke-width="1" fill="none" fill-rule="evenodd">
        <g id="Europe-Subscribe" transform="translate(-530.000000, -215.000000)">
            <g id="Group-3" transform="translate(530.000000, 215.000000)">
                <path d="M24.792,0.08 L19.932,0.08 L12.66,16.46 L5.388,0.08 L0.528,0.08 L0.528,26 L4.596,26 L4.596,7.424 L10.932,22.184 L14.244,22.184 L20.58,7.424 L20.58,26 L24.792,26 L24.792,0.08 Z M43.872,26 L35.34,26 C32.064,26 30.3,24.236 30.3,20.96 L30.3,5.12 C30.3,1.844 32.064,0.08 35.34,0.08 L43.872,0.08 C47.148,0.08 48.912,1.844 48.912,5.12 L48.912,20.96 C48.912,24.236 47.148,26 43.872,26 Z M34.62,5.372 L34.62,20.708 C34.62,21.572 35.088,22.04 35.952,22.04 L43.224,22.04 C44.124,22.04 44.592,21.572 44.592,20.708 L44.592,5.372 C44.592,4.508 44.124,4.04 43.224,4.04 L35.952,4.04 C35.088,4.04 34.62,4.508 34.62,5.372 Z M73.14,26 L68.46,26 L63.816,15.992 L58.704,15.992 L58.704,26 L54.384,26 L54.384,0.08 L67.308,0.08 C70.584,0.08 72.348,1.844 72.348,5.12 L72.348,10.952 C72.348,13.832 70.98,15.524 68.424,15.92 L73.14,26 Z M58.704,12.14 L66.696,12.14 C67.56,12.14 68.028,11.672 68.028,10.808 L68.028,5.336 C68.028,4.472 67.56,4.004 66.696,4.004 L58.704,4.004 L58.704,12.14 Z M93.3,0.08 L93.3,18.764 L82.392,0.08 L77.856,0.08 L77.856,26 L81.888,26 L81.888,6.812 L93.12,26 L97.368,26 L97.368,0.08 L93.3,0.08 Z M103.452,26 L107.772,26 L107.772,0.08 L103.452,0.08 L103.452,26 Z M129.3,0.08 L129.3,18.764 L118.392,0.08 L113.856,0.08 L113.856,26 L117.888,26 L117.888,6.812 L129.12,26 L133.368,26 L133.368,0.08 L129.3,0.08 Z M152.952,8.108 L157.272,8.108 L157.272,5.12 C157.272,1.844 155.508,0.08 152.232,0.08 L143.88,0.08 C140.604,0.08 138.84,1.844 138.84,5.12 L138.84,20.96 C138.84,24.236 140.604,26 143.88,26 L152.232,26 C155.508,26 157.272,24.236 157.272,20.96 L157.272,11.924 L147.588,11.924 L147.588,15.74 L152.952,15.74 L152.952,20.708 C152.952,21.572 152.484,22.04 151.62,22.04 L144.492,22.04 C143.628,22.04 143.16,21.572 143.16,20.708 L143.16,5.372 C143.16,4.508 143.628,4.04 144.492,4.04 L151.62,4.04 C152.484,4.04 152.952,4.508 152.952,5.372 L152.952,8.108 Z" id="MORNING-CHALK-UP" fill="#333132"></path>
                <g id="Group-2" transform="translate(344.000000, 0.000000)">
                    <rect id="Rectangle" fill="#333132" x="0" y="0" width="26" height="25.9121622"></rect>
                    <path d="M10.8984346,16.9915718 L5.65217391,16.9915718 L5.65217391,7.91304348 L10.8984346,7.91304348 L10.8984346,9.49029806 L7.58369508,9.49029806 L7.58369508,11.4836001 L10.6678982,11.4836001 L10.6678982,13.0608547 L7.58369508,13.0608547 L7.58369508,15.4018979 L10.8984346,15.4018979 L10.8984346,16.9915718 Z M20.2133512,7.91304348 L20.2133512,13.7873854 C20.2133512,14.4580324 20.0627771,15.0458747 19.7616245,15.5509299 C19.4604718,16.055985 19.0253647,16.4430502 18.45629,16.712137 C17.8872153,16.9812237 17.214305,17.1157651 16.4375389,17.1157651 C15.2661589,17.1157651 14.3564838,16.8166693 13.7084864,16.2184687 C13.0604889,15.6202681 12.7364951,14.8016356 12.7364951,13.7625467 L12.7364951,7.91304348 L14.6617855,7.91304348 L14.6617855,13.4706925 C14.6617855,14.1703181 14.8030136,14.6836452 15.085474,15.0106891 C15.3679345,15.337733 15.8352333,15.5012525 16.4873846,15.5012525 C17.1187667,15.5012525 17.5767195,15.3366981 17.8612569,15.0075843 C18.1457942,14.6784705 18.2880607,14.1620386 18.2880607,13.4582732 L18.2880607,7.91304348 L20.2133512,7.91304348 Z" id="EU" fill="#FFFFFF"></path>
                </g>
                <path d="M318.84,0.08 L332.16,0.08 C335.436,0.08 337.2,1.844 337.2,5.12 L337.2,11.816 C337.2,15.092 335.436,16.856 332.16,16.856 L324.024,16.856 L324.024,26 L318.84,26 L318.84,0.08 Z" id="Path" fill="#3D5BA9"></path>
                <path d="M313.404,0.08 L308.22,0.08 L308.22,20.528 C308.22,20.996 307.968,21.248 307.5,21.248 L300.444,21.248 C299.976,21.248 299.724,20.996 299.724,20.528 L299.724,0.08 L294.54,0.08 L294.54,20.96 C294.54,24.236 296.304,26 299.58,26 L308.364,26 C311.64,26 313.404,24.236 313.404,20.96 L313.404,0.08 Z" id="Path" fill="#3D5BA9"></path>
                <polygon id="Path" fill="#3D5BA9" points="276.756 26 282.84 26 273.876 12.752 282.48 0.08 276.576 0.08 269.52 10.448 267.576 10.448 267.576 0.08 262.392 0.08 262.392 26 267.576 26 267.576 15.056 269.484 15.056"></polygon>
                <polygon id="Path" fill="#3D5BA9" points="242.412 0.08 242.412 26 258.468 26 258.468 21.248 247.596 21.248 247.596 0.08"></polygon>
                <polygon id="Path" fill="#3D5BA9" points="231.684 20.168 223.332 20.168 221.712 26 216.24 26 224.484 0.08 230.748 0.08 238.992 26 233.304 26"></polygon>
                <polygon id="Path" fill="#3D5BA9" points="193.524 26 198.708 26 198.708 15.128 207.636 15.128 207.636 26 212.82 26 212.82 0.08 207.636 0.08 207.636 10.376 198.708 10.376 198.708 0.08 193.524 0.08"></polygon>
                <path d="M183.876,26 C187.152,26 188.916,24.236 188.916,20.96 L188.916,16.856 L183.732,16.856 L183.732,20.528 C183.732,20.996 183.48,21.248 183.012,21.248 L176.388,21.248 C175.92,21.248 175.668,20.996 175.668,20.528 L175.668,5.552 C175.668,5.084 175.92,4.832 176.388,4.832 L183.012,4.832 C183.48,4.832 183.732,5.084 183.732,5.552 L183.732,9.224 L188.916,9.224 L188.916,5.12 C188.916,1.844 187.152,0.08 183.876,0.08 L175.524,0.08 C172.248,0.08 170.484,1.844 170.484,5.12 L170.484,20.96 C170.484,24.236 172.248,26 175.524,26 L183.876,26 Z" id="Path" fill="#3D5BA9"></path>
                <polygon id="Path" fill="#FFFFFF" points="230.352 15.416 227.508 5.264 224.664 15.416"></polygon>
                <path d="M324.024,12.104 L331.296,12.104 C331.764,12.104 332.016,11.852 332.016,11.384 L332.016,5.552 C332.016,5.084 331.764,4.832 331.296,4.832 L324.024,4.832 L324.024,12.104 Z" id="Path" fill="#FFFFFF"></path>
            </g>
        </g>
    </g>
</svg>