<?xml version="1.0" encoding="UTF-8"?>
<svg width="108px" height="108px" viewBox="0 0 108 108" version="1.1" xmlns="http://www.w3.org/2000/svg" xmlns:xlink="http://www.w3.org/1999/xlink">
    <!-- Generator: Sketch 42 (36781) - http://www.bohemiancoding.com/sketch -->
    <title>Group 4</title>
    <desc>Created with Sketch.</desc>
    <defs></defs>
    <g id="FINALS" stroke="none" stroke-width="1" fill="none" fill-rule="evenodd">
        <g id="Europe-Subscribe" transform="translate(-1229.000000, -81.000000)">
            <g id="Group-4" transform="translate(1228.000000, 80.000000)">
                <g id="Group" fill="#FFCC00">
                    <g id="s-link" transform="translate(46.337100, 1.000000)">
                        <g id="s">
                            <g id="c" transform="translate(3.663573, 0.045119)">
                                <polygon id="t" transform="translate(6.070964, 4.289823) rotate(18.000000) translate(-6.070964, -4.289823) " points="4.14025104 0.409614245 4.14025104 8.17003091 8.00167602 8.17003091"></polygon>
                                <g id="t-link" transform="translate(4.397509, 4.500000) scale(-1, 1) translate(-4.397509, -4.500000) translate(0.897509, 0.000000)">
                                    <polygon id="t" transform="translate(3.112487, 4.289823) rotate(18.000000) translate(-3.112487, -4.289823) " points="1.18177424 0.409614245 1.18177424 8.17003091 5.04319922 8.17003091"></polygon>
                                </g>
                            </g>
                            <g id="a" transform="translate(4.106457, 0.082401)">
                                <g id="c-link" transform="translate(7.938569, 6.309889) rotate(72.000000) translate(-7.938569, -6.309889) translate(2.938569, 1.809889)">
                                    <g id="c" transform="translate(-0.000000, 0.000000)">
                                        <polygon id="t" transform="translate(6.070964, 4.289823) rotate(18.000000) translate(-6.070964, -4.289823) " points="4.14025104 0.409614245 4.14025104 8.17003091 8.00167602 8.17003091"></polygon>
                                        <g id="t-link" transform="translate(4.397509, 4.500000) scale(-1, 1) translate(-4.397509, -4.500000) translate(0.897509, -0.000000)">
                                            <polygon id="t" transform="translate(3.112487, 4.289823) rotate(18.000000) translate(-3.112487, -4.289823) " points="1.18177424 0.409614245 1.18177424 8.17003091 5.04319922 8.17003091"></polygon>
                                        </g>
                                    </g>
                                </g>
                                <g id="c-link" transform="translate(7.238441, 10.110117) rotate(144.000000) translate(-7.238441, -10.110117) translate(2.238441, 5.610117)">
                                    <g id="c" transform="translate(0.000000, 0.000000)">
                                        <polygon id="t" transform="translate(6.070964, 4.289823) rotate(18.000000) translate(-6.070964, -4.289823) " points="4.14025104 0.409614245 4.14025104 8.17003091 8.00167602 8.17003091"></polygon>
                                        <g id="t-link" transform="translate(4.397509, 4.500000) scale(-1, 1) translate(-4.397509, -4.500000) translate(0.897509, 0.000000)">
                                            <polygon id="t" transform="translate(3.112487, 4.289823) rotate(18.000000) translate(-3.112487, -4.289823) " points="1.18177424 0.409614245 1.18177424 8.17003091 5.04319922 8.17003091"></polygon>
                                        </g>
                                    </g>
                                </g>
                            </g>
                            <g id="a-link" transform="translate(7.076676, 8.582401) scale(-1, 1) translate(-7.076676, -8.582401) translate(0.076676, 0.082401)">
                                <g id="a">
                                    <g id="c-link" transform="translate(7.938569, 6.309889) rotate(72.000000) translate(-7.938569, -6.309889) translate(2.938569, 1.809889)">
                                        <g id="c" transform="translate(-0.000000, -0.000000)">
                                            <polygon id="t" transform="translate(6.070964, 4.289823) rotate(18.000000) translate(-6.070964, -4.289823) " points="4.14025104 0.409614245 4.14025104 8.17003091 8.00167602 8.17003091"></polygon>
                                            <g id="t-link" transform="translate(4.397509, 4.500000) scale(-1, 1) translate(-4.397509, -4.500000) translate(0.897509, -0.000000)">
                                                <polygon id="t" transform="translate(3.112487, 4.289823) rotate(18.000000) translate(-3.112487, -4.289823) " points="1.18177424 0.409614245 1.18177424 8.17003091 5.04319922 8.17003091"></polygon>
                                            </g>
                                        </g>
                                    </g>
                                    <g id="c-link" transform="translate(7.238441, 10.110117) rotate(144.000000) translate(-7.238441, -10.110117) translate(2.238441, 5.610117)">
                                        <g id="c" transform="translate(-0.000000, 0.000000)">
                                            <polygon id="t" transform="translate(6.070964, 4.289823) rotate(18.000000) translate(-6.070964, -4.289823) " points="4.14025104 0.409614245 4.14025104 8.17003091 8.00167602 8.17003091"></polygon>
                                            <g id="t-link" transform="translate(4.397509, 4.500000) scale(-1, 1) translate(-4.397509, -4.500000) translate(0.897509, 0.000000)">
                                                <polygon id="t" transform="translate(3.112487, 4.289823) rotate(18.000000) translate(-3.112487, -4.289823) " points="1.18177424 0.409614245 1.18177424 8.17003091 5.04319922 8.17003091"></polygon>
                                            </g>
                                        </g>
                                    </g>
                                </g>
                            </g>
                        </g>
                    </g>
                    <g id="s-link" transform="translate(46.337100, 94.125000)">
                        <g id="s">
                            <g id="c" transform="translate(3.663573, 0.045119)">
                                <polygon id="t" transform="translate(6.070964, 4.289823) rotate(18.000000) translate(-6.070964, -4.289823) " points="4.14025104 0.409614245 4.14025104 8.17003091 8.00167602 8.17003091"></polygon>
                                <g id="t-link" transform="translate(4.397509, 4.500000) scale(-1, 1) translate(-4.397509, -4.500000) translate(0.897509, 0.000000)">
                                    <polygon id="t" transform="translate(3.112487, 4.289823) rotate(18.000000) translate(-3.112487, -4.289823) " points="1.18177424 0.409614245 1.18177424 8.17003091 5.04319922 8.17003091"></polygon>
                                </g>
                            </g>
                            <g id="a" transform="translate(4.106457, 0.082401)">
                                <g id="c-link" transform="translate(7.938569, 6.309889) rotate(72.000000) translate(-7.938569, -6.309889) translate(2.938569, 1.809889)">
                                    <g id="c" transform="translate(-0.000000, 0.000000)">
                                        <polygon id="t" transform="translate(6.070964, 4.289823) rotate(18.000000) translate(-6.070964, -4.289823) " points="4.14025104 0.409614245 4.14025104 8.17003091 8.00167602 8.17003091"></polygon>
                                        <g id="t-link" transform="translate(4.397509, 4.500000) scale(-1, 1) translate(-4.397509, -4.500000) translate(0.897509, -0.000000)">
                                            <polygon id="t" transform="translate(3.112487, 4.289823) rotate(18.000000) translate(-3.112487, -4.289823) " points="1.18177424 0.409614245 1.18177424 8.17003091 5.04319922 8.17003091"></polygon>
                                        </g>
                                    </g>
                                </g>
                                <g id="c-link" transform="translate(7.238441, 10.110117) rotate(144.000000) translate(-7.238441, -10.110117) translate(2.238441, 5.610117)">
                                    <g id="c" transform="translate(-0.000000, 0.000000)">
                                        <polygon id="t" transform="translate(6.070964, 4.289823) rotate(18.000000) translate(-6.070964, -4.289823) " points="4.14025104 0.409614245 4.14025104 8.17003091 8.00167602 8.17003091"></polygon>
                                        <g id="t-link" transform="translate(4.397509, 4.500000) scale(-1, 1) translate(-4.397509, -4.500000) translate(0.897509, 0.000000)">
                                            <polygon id="t" transform="translate(3.112487, 4.289823) rotate(18.000000) translate(-3.112487, -4.289823) " points="1.18177424 0.409614245 1.18177424 8.17003091 5.04319922 8.17003091"></polygon>
                                        </g>
                                    </g>
                                </g>
                            </g>
                            <g id="a-link" transform="translate(7.076676, 8.582401) scale(-1, 1) translate(-7.076676, -8.582401) translate(0.076676, 0.082401)">
                                <g id="a">
                                    <g id="c-link" transform="translate(7.938569, 6.309889) rotate(72.000000) translate(-7.938569, -6.309889) translate(2.938569, 1.809889)">
                                        <g id="c" transform="translate(0.000000, -0.000000)">
                                            <polygon id="t" transform="translate(6.070964, 4.289823) rotate(18.000000) translate(-6.070964, -4.289823) " points="4.14025104 0.409614245 4.14025104 8.17003091 8.00167602 8.17003091"></polygon>
                                            <g id="t-link" transform="translate(4.397509, 4.500000) scale(-1, 1) translate(-4.397509, -4.500000) translate(0.897509, -0.000000)">
                                                <polygon id="t" transform="translate(3.112487, 4.289823) rotate(18.000000) translate(-3.112487, -4.289823) " points="1.18177424 0.409614245 1.18177424 8.17003091 5.04319922 8.17003091"></polygon>
                                            </g>
                                        </g>
                                    </g>
                                    <g id="c-link" transform="translate(7.238441, 10.110117) rotate(144.000000) translate(-7.238441, -10.110117) translate(2.238441, 5.610117)">
                                        <g id="c" transform="translate(0.000000, -0.000000)">
                                            <polygon id="t" transform="translate(6.070964, 4.289823) rotate(18.000000) translate(-6.070964, -4.289823) " points="4.14025104 0.409614245 4.14025104 8.17003091 8.00167602 8.17003091"></polygon>
                                            <g id="t-link" transform="translate(4.397509, 4.500000) scale(-1, 1) translate(-4.397509, -4.500000) translate(0.897509, 0.000000)">
                                                <polygon id="t" transform="translate(3.112487, 4.289823) rotate(18.000000) translate(-3.112487, -4.289823) " points="1.18177424 0.409614245 1.18177424 8.17003091 5.04319922 8.17003091"></polygon>
                                            </g>
                                        </g>
                                    </g>
                                </g>
                            </g>
                        </g>
                    </g>
                    <g id="l" transform="translate(0.000000, 0.255165)">
                        <g id="s-link" transform="translate(0.000000, 47.307335)">
                            <g id="s">
                                <g id="c" transform="translate(3.663573, 0.045119)">
                                    <polygon id="t" transform="translate(6.070964, 4.289823) rotate(18.000000) translate(-6.070964, -4.289823) " points="4.14025104 0.409614245 4.14025104 8.17003091 8.00167602 8.17003091"></polygon>
                                    <g id="t-link" transform="translate(4.397509, 4.500000) scale(-1, 1) translate(-4.397509, -4.500000) translate(0.897509, 0.000000)">
                                        <polygon id="t" transform="translate(3.112487, 4.289823) rotate(18.000000) translate(-3.112487, -4.289823) " points="1.18177424 0.409614245 1.18177424 8.17003091 5.04319922 8.17003091"></polygon>
                                    </g>
                                </g>
                                <g id="a" transform="translate(4.106457, 0.082401)">
                                    <g id="c-link" transform="translate(7.938569, 6.309889) rotate(72.000000) translate(-7.938569, -6.309889) translate(2.938569, 1.809889)">
                                        <g id="c" transform="translate(0.000000, 0.000000)">
                                            <polygon id="t" transform="translate(6.070964, 4.289823) rotate(18.000000) translate(-6.070964, -4.289823) " points="4.14025104 0.409614245 4.14025104 8.17003091 8.00167602 8.17003091"></polygon>
                                            <g id="t-link" transform="translate(4.397509, 4.500000) scale(-1, 1) translate(-4.397509, -4.500000) translate(0.897509, -0.000000)">
                                                <polygon id="t" transform="translate(3.112487, 4.289823) rotate(18.000000) translate(-3.112487, -4.289823) " points="1.18177424 0.409614245 1.18177424 8.17003091 5.04319922 8.17003091"></polygon>
                                            </g>
                                        </g>
                                    </g>
                                    <g id="c-link" transform="translate(7.238441, 10.110117) rotate(144.000000) translate(-7.238441, -10.110117) translate(2.238441, 5.610117)">
                                        <g id="c" transform="translate(-0.000000, 0.000000)">
                                            <polygon id="t" transform="translate(6.070964, 4.289823) rotate(18.000000) translate(-6.070964, -4.289823) " points="4.14025104 0.409614245 4.14025104 8.17003091 8.00167602 8.17003091"></polygon>
                                            <g id="t-link" transform="translate(4.397509, 4.500000) scale(-1, 1) translate(-4.397509, -4.500000) translate(0.897509, 0.000000)">
                                                <polygon id="t" transform="translate(3.112487, 4.289823) rotate(18.000000) translate(-3.112487, -4.289823) " points="1.18177424 0.409614245 1.18177424 8.17003091 5.04319922 8.17003091"></polygon>
                                            </g>
                                        </g>
                                    </g>
                                </g>
                                <g id="a-link" transform="translate(7.076676, 8.582401) scale(-1, 1) translate(-7.076676, -8.582401) translate(0.076676, 0.082401)">
                                    <g id="a">
                                        <g id="c-link" transform="translate(7.938569, 6.309889) rotate(72.000000) translate(-7.938569, -6.309889) translate(2.938569, 1.809889)">
                                            <g id="c" transform="translate(0.000000, -0.000000)">
                                                <polygon id="t" transform="translate(6.070964, 4.289823) rotate(18.000000) translate(-6.070964, -4.289823) " points="4.14025104 0.409614245 4.14025104 8.17003091 8.00167602 8.17003091"></polygon>
                                                <g id="t-link" transform="translate(4.397509, 4.500000) scale(-1, 1) translate(-4.397509, -4.500000) translate(0.897509, -0.000000)">
                                                    <polygon id="t" transform="translate(3.112487, 4.289823) rotate(18.000000) translate(-3.112487, -4.289823) " points="1.18177424 0.409614245 1.18177424 8.17003091 5.04319922 8.17003091"></polygon>
                                                </g>
                                            </g>
                                        </g>
                                        <g id="c-link" transform="translate(7.238441, 10.110117) rotate(144.000000) translate(-7.238441, -10.110117) translate(2.238441, 5.610117)">
                                            <g id="c" transform="translate(-0.000000, 0.000000)">
                                                <polygon id="t" transform="translate(6.070964, 4.289823) rotate(18.000000) translate(-6.070964, -4.289823) " points="4.14025104 0.409614245 4.14025104 8.17003091 8.00167602 8.17003091"></polygon>
                                                <g id="t-link" transform="translate(4.397509, 4.500000) scale(-1, 1) translate(-4.397509, -4.500000) translate(0.897509, 0.000000)">
                                                    <polygon id="t" transform="translate(3.112487, 4.289823) rotate(18.000000) translate(-3.112487, -4.289823) " points="1.18177424 0.409614245 1.18177424 8.17003091 5.04319922 8.17003091"></polygon>
                                                </g>
                                            </g>
                                        </g>
                                    </g>
                                </g>
                            </g>
                        </g>
                        <g id="s-link" transform="translate(32.630507, 13.582498) rotate(216.000000) translate(-32.630507, -13.582498) translate(23.130507, 4.582498)">
                            <g id="s" transform="translate(0.000000, 0.000000)">
                                <g id="c" transform="translate(3.663573, 0.045119)">
                                    <polygon id="t" transform="translate(6.070964, 4.289823) rotate(18.000000) translate(-6.070964, -4.289823) " points="4.14025104 0.409614245 4.14025104 8.17003091 8.00167602 8.17003091"></polygon>
                                    <g id="t-link" transform="translate(4.397509, 4.500000) scale(-1, 1) translate(-4.397509, -4.500000) translate(0.897509, -0.000000)">
                                        <polygon id="t" transform="translate(3.112487, 4.289823) rotate(18.000000) translate(-3.112487, -4.289823) " points="1.18177424 0.409614245 1.18177424 8.17003091 5.04319922 8.17003091"></polygon>
                                    </g>
                                </g>
                                <g id="a" transform="translate(4.106457, 0.082401)">
                                    <g id="c-link" transform="translate(7.938569, 6.309889) rotate(72.000000) translate(-7.938569, -6.309889) translate(2.938569, 1.809889)">
                                        <g id="c" transform="translate(0.000000, -0.000000)">
                                            <polygon id="t" transform="translate(6.070964, 4.289823) rotate(18.000000) translate(-6.070964, -4.289823) " points="4.14025104 0.409614245 4.14025104 8.17003091 8.00167602 8.17003091"></polygon>
                                            <g id="t-link" transform="translate(4.397509, 4.500000) scale(-1, 1) translate(-4.397509, -4.500000) translate(0.897509, 0.000000)">
                                                <polygon id="t" transform="translate(3.112487, 4.289823) rotate(18.000000) translate(-3.112487, -4.289823) " points="1.18177424 0.409614245 1.18177424 8.17003091 5.04319922 8.17003091"></polygon>
                                            </g>
                                        </g>
                                    </g>
                                    <g id="c-link" transform="translate(7.238441, 10.110117) rotate(144.000000) translate(-7.238441, -10.110117) translate(2.238441, 5.610117)">
                                        <g id="c" transform="translate(-0.000000, -0.000000)">
                                            <polygon id="t" transform="translate(6.070964, 4.289823) rotate(18.000000) translate(-6.070964, -4.289823) " points="4.14025104 0.409614245 4.14025104 8.17003091 8.00167602 8.17003091"></polygon>
                                            <g id="t-link" transform="translate(4.397509, 4.500000) scale(-1, 1) translate(-4.397509, -4.500000) translate(0.897509, -0.000000)">
                                                <polygon id="t" transform="translate(3.112487, 4.289823) rotate(18.000000) translate(-3.112487, -4.289823) " points="1.18177424 0.409614245 1.18177424 8.17003091 5.04319922 8.17003091"></polygon>
                                            </g>
                                        </g>
                                    </g>
                                </g>
                                <g id="a-link" transform="translate(7.076676, 8.582401) scale(-1, 1) translate(-7.076676, -8.582401) translate(0.076676, 0.082401)">
                                    <g id="a" transform="translate(0.000000, 0.000000)">
                                        <g id="c-link" transform="translate(7.938569, 6.309889) rotate(72.000000) translate(-7.938569, -6.309889) translate(2.938569, 1.809889)">
                                            <g id="c" transform="translate(-0.000000, 0.000000)">
                                                <polygon id="t" transform="translate(6.070964, 4.289823) rotate(18.000000) translate(-6.070964, -4.289823) " points="4.14025104 0.409614245 4.14025104 8.17003091 8.00167602 8.17003091"></polygon>
                                                <g id="t-link" transform="translate(4.397509, 4.500000) scale(-1, 1) translate(-4.397509, -4.500000) translate(0.897509, 0.000000)">
                                                    <polygon id="t" transform="translate(3.112487, 4.289823) rotate(18.000000) translate(-3.112487, -4.289823) " points="1.18177424 0.409614245 1.18177424 8.17003091 5.04319922 8.17003091"></polygon>
                                                </g>
                                            </g>
                                        </g>
                                        <g id="c-link" transform="translate(7.238441, 10.110117) rotate(144.000000) translate(-7.238441, -10.110117) translate(2.238441, 5.610117)">
                                            <g id="c" transform="translate(-0.000000, -0.000000)">
                                                <polygon id="t" transform="translate(6.070964, 4.289823) rotate(18.000000) translate(-6.070964, -4.289823) " points="4.14025104 0.409614245 4.14025104 8.17003091 8.00167602 8.17003091"></polygon>
                                                <g id="t-link" transform="translate(4.397509, 4.500000) scale(-1, 1) translate(-4.397509, -4.500000) translate(0.897509, -0.000000)">
                                                    <polygon id="t" transform="translate(3.112487, 4.289823) rotate(18.000000) translate(-3.112487, -4.289823) " points="1.18177424 0.409614245 1.18177424 8.17003091 5.04319922 8.17003091"></polygon>
                                                </g>
                                            </g>
                                        </g>
                                    </g>
                                </g>
                            </g>
                        </g>
                        <g id="s-link" transform="translate(13.838598, 31.064709) rotate(144.000000) translate(-13.838598, -31.064709) translate(3.838598, 21.564709)">
                            <g id="s" transform="translate(0.176151, 0.215563)">
                                <g id="c" transform="translate(3.663573, 0.045119)">
                                    <polygon id="t" transform="translate(6.070964, 4.289823) rotate(18.000000) translate(-6.070964, -4.289823) " points="4.14025104 0.409614245 4.14025104 8.17003091 8.00167602 8.17003091"></polygon>
                                    <g id="t-link" transform="translate(4.397509, 4.500000) scale(-1, 1) translate(-4.397509, -4.500000) translate(0.897509, 0.000000)">
                                        <polygon id="t" transform="translate(3.112487, 4.289823) rotate(18.000000) translate(-3.112487, -4.289823) " points="1.18177424 0.409614245 1.18177424 8.17003091 5.04319922 8.17003091"></polygon>
                                    </g>
                                </g>
                                <g id="a" transform="translate(4.106457, 0.082401)">
                                    <g id="c-link" transform="translate(7.938569, 6.309889) rotate(72.000000) translate(-7.938569, -6.309889) translate(2.938569, 1.809889)">
                                        <g id="c" transform="translate(-0.000000, 0.000000)">
                                            <polygon id="t" transform="translate(6.070964, 4.289823) rotate(18.000000) translate(-6.070964, -4.289823) " points="4.14025104 0.409614245 4.14025104 8.17003091 8.00167602 8.17003091"></polygon>
                                            <g id="t-link" transform="translate(4.397509, 4.500000) scale(-1, 1) translate(-4.397509, -4.500000) translate(0.897509, -0.000000)">
                                                <polygon id="t" transform="translate(3.112487, 4.289823) rotate(18.000000) translate(-3.112487, -4.289823) " points="1.18177424 0.409614245 1.18177424 8.17003091 5.04319922 8.17003091"></polygon>
                                            </g>
                                        </g>
                                    </g>
                                    <g id="c-link" transform="translate(7.238441, 10.110117) rotate(144.000000) translate(-7.238441, -10.110117) translate(2.238441, 5.610117)">
                                        <g id="c" transform="translate(-0.000000, -0.000000)">
                                            <polygon id="t" transform="translate(6.070964, 4.289823) rotate(18.000000) translate(-6.070964, -4.289823) " points="4.14025104 0.409614245 4.14025104 8.17003091 8.00167602 8.17003091"></polygon>
                                            <g id="t-link" transform="translate(4.397509, 4.500000) scale(-1, 1) translate(-4.397509, -4.500000) translate(0.897509, 0.000000)">
                                                <polygon id="t" transform="translate(3.112487, 4.289823) rotate(18.000000) translate(-3.112487, -4.289823) " points="1.18177424 0.409614245 1.18177424 8.17003091 5.04319922 8.17003091"></polygon>
                                            </g>
                                        </g>
                                    </g>
                                </g>
                                <g id="a-link" transform="translate(7.076676, 8.582401) scale(-1, 1) translate(-7.076676, -8.582401) translate(0.076676, 0.082401)">
                                    <g id="a" transform="translate(0.000000, 0.000000)">
                                        <g id="c-link" transform="translate(7.938569, 6.309889) rotate(72.000000) translate(-7.938569, -6.309889) translate(2.938569, 1.809889)">
                                            <g id="c" transform="translate(0.000000, -0.000000)">
                                                <polygon id="t" transform="translate(6.070964, 4.289823) rotate(18.000000) translate(-6.070964, -4.289823) " points="4.14025104 0.409614245 4.14025104 8.17003091 8.00167602 8.17003091"></polygon>
                                                <g id="t-link" transform="translate(4.397509, 4.500000) scale(-1, 1) translate(-4.397509, -4.500000) translate(0.897509, 0.000000)">
                                                    <polygon id="t" transform="translate(3.112487, 4.289823) rotate(18.000000) translate(-3.112487, -4.289823) " points="1.18177424 0.409614245 1.18177424 8.17003091 5.04319922 8.17003091"></polygon>
                                                </g>
                                            </g>
                                        </g>
                                        <g id="c-link" transform="translate(7.238441, 10.110117) rotate(144.000000) translate(-7.238441, -10.110117) translate(2.238441, 5.610117)">
                                            <g id="c" transform="translate(-0.000000, 0.000000)">
                                                <polygon id="t" transform="translate(6.070964, 4.289823) rotate(18.000000) translate(-6.070964, -4.289823) " points="4.14025104 0.409614245 4.14025104 8.17003091 8.00167602 8.17003091"></polygon>
                                                <g id="t-link" transform="translate(4.397509, 4.500000) scale(-1, 1) translate(-4.397509, -4.500000) translate(0.897509, -0.000000)">
                                                    <polygon id="t" transform="translate(3.112487, 4.289823) rotate(18.000000) translate(-3.112487, -4.289823) " points="1.18177424 0.409614245 1.18177424 8.17003091 5.04319922 8.17003091"></polygon>
                                                </g>
                                            </g>
                                        </g>
                                    </g>
                                </g>
                            </g>
                        </g>
                        <g id="s-link" transform="translate(14.291822, 79.151109) rotate(72.000000) translate(-14.291822, -79.151109) translate(4.791822, 70.151109)">
                            <g id="s" transform="translate(0.000000, -0.000000)">
                                <g id="c" transform="translate(3.663573, 0.045119)">
                                    <polygon id="t" transform="translate(6.070964, 4.289823) rotate(18.000000) translate(-6.070964, -4.289823) " points="4.14025104 0.409614245 4.14025104 8.17003091 8.00167602 8.17003091"></polygon>
                                    <g id="t-link" transform="translate(4.397509, 4.500000) scale(-1, 1) translate(-4.397509, -4.500000) translate(0.897509, -0.000000)">
                                        <polygon id="t" transform="translate(3.112487, 4.289823) rotate(18.000000) translate(-3.112487, -4.289823) " points="1.18177424 0.409614245 1.18177424 8.17003091 5.04319922 8.17003091"></polygon>
                                    </g>
                                </g>
                                <g id="a" transform="translate(4.106457, 0.082401)">
                                    <g id="c-link" transform="translate(7.938569, 6.309889) rotate(72.000000) translate(-7.938569, -6.309889) translate(2.938569, 1.809889)">
                                        <g id="c" transform="translate(-0.000000, -0.000000)">
                                            <polygon id="t" transform="translate(6.070964, 4.289823) rotate(18.000000) translate(-6.070964, -4.289823) " points="4.14025104 0.409614245 4.14025104 8.17003091 8.00167602 8.17003091"></polygon>
                                            <g id="t-link" transform="translate(4.397509, 4.500000) scale(-1, 1) translate(-4.397509, -4.500000) translate(0.897509, 0.000000)">
                                                <polygon id="t" transform="translate(3.112487, 4.289823) rotate(18.000000) translate(-3.112487, -4.289823) " points="1.18177424 0.409614245 1.18177424 8.17003091 5.04319922 8.17003091"></polygon>
                                            </g>
                                        </g>
                                    </g>
                                    <g id="c-link" transform="translate(7.238441, 10.110117) rotate(144.000000) translate(-7.238441, -10.110117) translate(2.238441, 5.610117)">
                                        <g id="c" transform="translate(0.000000, -0.000000)">
                                            <polygon id="t" transform="translate(6.070964, 4.289823) rotate(18.000000) translate(-6.070964, -4.289823) " points="4.14025104 0.409614245 4.14025104 8.17003091 8.00167602 8.17003091"></polygon>
                                            <g id="t-link" transform="translate(4.397509, 4.500000) scale(-1, 1) translate(-4.397509, -4.500000) translate(0.897509, -0.000000)">
                                                <polygon id="t" transform="translate(3.112487, 4.289823) rotate(18.000000) translate(-3.112487, -4.289823) " points="1.18177424 0.409614245 1.18177424 8.17003091 5.04319922 8.17003091"></polygon>
                                            </g>
                                        </g>
                                    </g>
                                </g>
                                <g id="a-link" transform="translate(7.076676, 8.582401) scale(-1, 1) translate(-7.076676, -8.582401) translate(0.076676, 0.082401)">
                                    <g id="a" transform="translate(-0.000000, 0.000000)">
                                        <g id="c-link" transform="translate(7.938569, 6.309889) rotate(72.000000) translate(-7.938569, -6.309889) translate(2.938569, 1.809889)">
                                            <g id="c" transform="translate(0.000000, 0.000000)">
                                                <polygon id="t" transform="translate(6.070964, 4.289823) rotate(18.000000) translate(-6.070964, -4.289823) " points="4.14025104 0.409614245 4.14025104 8.17003091 8.00167602 8.17003091"></polygon>
                                                <g id="t-link" transform="translate(4.397509, 4.500000) scale(-1, 1) translate(-4.397509, -4.500000) translate(0.897509, -0.000000)">
                                                    <polygon id="t" transform="translate(3.112487, 4.289823) rotate(18.000000) translate(-3.112487, -4.289823) " points="1.18177424 0.409614245 1.18177424 8.17003091 5.04319922 8.17003091"></polygon>
                                                </g>
                                            </g>
                                        </g>
                                        <g id="c-link" transform="translate(7.238441, 10.110117) rotate(144.000000) translate(-7.238441, -10.110117) translate(2.238441, 5.610117)">
                                            <g id="c" transform="translate(-0.000000, 0.000000)">
                                                <polygon id="t" transform="translate(6.070964, 4.289823) rotate(18.000000) translate(-6.070964, -4.289823) " points="4.14025104 0.409614245 4.14025104 8.17003091 8.00167602 8.17003091"></polygon>
                                                <g id="t-link" transform="translate(4.397509, 4.500000) scale(-1, 1) translate(-4.397509, -4.500000) translate(0.897509, -0.000000)">
                                                    <polygon id="t" transform="translate(3.112487, 4.289823) rotate(18.000000) translate(-3.112487, -4.289823) " points="1.18177424 0.409614245 1.18177424 8.17003091 5.04319922 8.17003091"></polygon>
                                                </g>
                                            </g>
                                        </g>
                                    </g>
                                </g>
                            </g>
                        </g>
                        <g id="s-link" transform="translate(31.252377, 96.194166) rotate(72.000000) translate(-31.252377, -96.194166) translate(21.752377, 87.194166)">
                            <g id="s" transform="translate(-0.000000, 0.000000)">
                                <g id="c" transform="translate(3.663573, 0.045119)">
                                    <polygon id="t" transform="translate(6.070964, 4.289823) rotate(18.000000) translate(-6.070964, -4.289823) " points="4.14025104 0.409614245 4.14025104 8.17003091 8.00167602 8.17003091"></polygon>
                                    <g id="t-link" transform="translate(4.397509, 4.500000) scale(-1, 1) translate(-4.397509, -4.500000) translate(0.897509, -0.000000)">
                                        <polygon id="t" transform="translate(3.112487, 4.289823) rotate(18.000000) translate(-3.112487, -4.289823) " points="1.18177424 0.409614245 1.18177424 8.17003091 5.04319922 8.17003091"></polygon>
                                    </g>
                                </g>
                                <g id="a" transform="translate(4.106457, 0.082401)">
                                    <g id="c-link" transform="translate(7.938569, 6.309889) rotate(72.000000) translate(-7.938569, -6.309889) translate(2.938569, 1.809889)">
                                        <g id="c" transform="translate(-0.000000, -0.000000)">
                                            <polygon id="t" transform="translate(6.070964, 4.289823) rotate(18.000000) translate(-6.070964, -4.289823) " points="4.14025104 0.409614245 4.14025104 8.17003091 8.00167602 8.17003091"></polygon>
                                            <g id="t-link" transform="translate(4.397509, 4.500000) scale(-1, 1) translate(-4.397509, -4.500000) translate(0.897509, 0.000000)">
                                                <polygon id="t" transform="translate(3.112487, 4.289823) rotate(18.000000) translate(-3.112487, -4.289823) " points="1.18177424 0.409614245 1.18177424 8.17003091 5.04319922 8.17003091"></polygon>
                                            </g>
                                        </g>
                                    </g>
                                    <g id="c-link" transform="translate(7.238441, 10.110117) rotate(144.000000) translate(-7.238441, -10.110117) translate(2.238441, 5.610117)">
                                        <g id="c" transform="translate(0.000000, -0.000000)">
                                            <polygon id="t" transform="translate(6.070964, 4.289823) rotate(18.000000) translate(-6.070964, -4.289823) " points="4.14025104 0.409614245 4.14025104 8.17003091 8.00167602 8.17003091"></polygon>
                                            <g id="t-link" transform="translate(4.397509, 4.500000) scale(-1, 1) translate(-4.397509, -4.500000) translate(0.897509, 0.000000)">
                                                <polygon id="t" transform="translate(3.112487, 4.289823) rotate(18.000000) translate(-3.112487, -4.289823) " points="1.18177424 0.409614245 1.18177424 8.17003091 5.04319922 8.17003091"></polygon>
                                            </g>
                                        </g>
                                    </g>
                                </g>
                                <g id="a-link" transform="translate(7.076676, 8.582401) scale(-1, 1) translate(-7.076676, -8.582401) translate(0.076676, 0.082401)">
                                    <g id="a" transform="translate(0.000000, 0.000000)">
                                        <g id="c-link" transform="translate(7.938569, 6.309889) rotate(72.000000) translate(-7.938569, -6.309889) translate(2.938569, 1.809889)">
                                            <g id="c" transform="translate(0.000000, -0.000000)">
                                                <polygon id="t" transform="translate(6.070964, 4.289823) rotate(18.000000) translate(-6.070964, -4.289823) " points="4.14025104 0.409614245 4.14025104 8.17003091 8.00167602 8.17003091"></polygon>
                                                <g id="t-link" transform="translate(4.397509, 4.500000) scale(-1, 1) translate(-4.397509, -4.500000) translate(0.897509, -0.000000)">
                                                    <polygon id="t" transform="translate(3.112487, 4.289823) rotate(18.000000) translate(-3.112487, -4.289823) " points="1.18177424 0.409614245 1.18177424 8.17003091 5.04319922 8.17003091"></polygon>
                                                </g>
                                            </g>
                                        </g>
                                        <g id="c-link" transform="translate(7.238441, 10.110117) rotate(144.000000) translate(-7.238441, -10.110117) translate(2.238441, 5.610117)">
                                            <g id="c" transform="translate(-0.000000, -0.000000)">
                                                <polygon id="t" transform="translate(6.070964, 4.289823) rotate(18.000000) translate(-6.070964, -4.289823) " points="4.14025104 0.409614245 4.14025104 8.17003091 8.00167602 8.17003091"></polygon>
                                                <g id="t-link" transform="translate(4.397509, 4.500000) scale(-1, 1) translate(-4.397509, -4.500000) translate(0.897509, -0.000000)">
                                                    <polygon id="t" transform="translate(3.112487, 4.289823) rotate(18.000000) translate(-3.112487, -4.289823) " points="1.18177424 0.409614245 1.18177424 8.17003091 5.04319922 8.17003091"></polygon>
                                                </g>
                                            </g>
                                        </g>
                                    </g>
                                </g>
                            </g>
                        </g>
                    </g>
                    <g id="l-link" transform="translate(87.857332, 54.755165) scale(-1, 1) translate(-87.857332, -54.755165) translate(64.857332, 0.255165)">
                        <g id="l">
                            <g id="s-link" transform="translate(0.000000, 47.307335)">
                                <g id="s">
                                    <g id="c" transform="translate(3.663573, 0.045119)">
                                        <polygon id="t" transform="translate(6.070964, 4.289823) rotate(18.000000) translate(-6.070964, -4.289823) " points="4.14025104 0.409614245 4.14025104 8.17003091 8.00167602 8.17003091"></polygon>
                                        <g id="t-link" transform="translate(4.397509, 4.500000) scale(-1, 1) translate(-4.397509, -4.500000) translate(0.897509, 0.000000)">
                                            <polygon id="t" transform="translate(3.112487, 4.289823) rotate(18.000000) translate(-3.112487, -4.289823) " points="1.18177424 0.409614245 1.18177424 8.17003091 5.04319922 8.17003091"></polygon>
                                        </g>
                                    </g>
                                    <g id="a" transform="translate(4.106457, 0.082401)">
                                        <g id="c-link" transform="translate(7.938569, 6.309889) rotate(72.000000) translate(-7.938569, -6.309889) translate(2.938569, 1.809889)">
                                            <g id="c" transform="translate(0.000000, 0.000000)">
                                                <polygon id="t" transform="translate(6.070964, 4.289823) rotate(18.000000) translate(-6.070964, -4.289823) " points="4.14025104 0.409614245 4.14025104 8.17003091 8.00167602 8.17003091"></polygon>
                                                <g id="t-link" transform="translate(4.397509, 4.500000) scale(-1, 1) translate(-4.397509, -4.500000) translate(0.897509, -0.000000)">
                                                    <polygon id="t" transform="translate(3.112487, 4.289823) rotate(18.000000) translate(-3.112487, -4.289823) " points="1.18177424 0.409614245 1.18177424 8.17003091 5.04319922 8.17003091"></polygon>
                                                </g>
                                            </g>
                                        </g>
                                        <g id="c-link" transform="translate(7.238441, 10.110117) rotate(144.000000) translate(-7.238441, -10.110117) translate(2.238441, 5.610117)">
                                            <g id="c" transform="translate(-0.000000, 0.000000)">
                                                <polygon id="t" transform="translate(6.070964, 4.289823) rotate(18.000000) translate(-6.070964, -4.289823) " points="4.14025104 0.409614245 4.14025104 8.17003091 8.00167602 8.17003091"></polygon>
                                                <g id="t-link" transform="translate(4.397509, 4.500000) scale(-1, 1) translate(-4.397509, -4.500000) translate(0.897509, 0.000000)">
                                                    <polygon id="t" transform="translate(3.112487, 4.289823) rotate(18.000000) translate(-3.112487, -4.289823) " points="1.18177424 0.409614245 1.18177424 8.17003091 5.04319922 8.17003091"></polygon>
                                                </g>
                                            </g>
                                        </g>
                                    </g>
                                    <g id="a-link" transform="translate(7.076676, 8.582401) scale(-1, 1) translate(-7.076676, -8.582401) translate(0.076676, 0.082401)">
                                        <g id="a">
                                            <g id="c-link" transform="translate(7.938569, 6.309889) rotate(72.000000) translate(-7.938569, -6.309889) translate(2.938569, 1.809889)">
                                                <g id="c" transform="translate(0.000000, -0.000000)">
                                                    <polygon id="t" transform="translate(6.070964, 4.289823) rotate(18.000000) translate(-6.070964, -4.289823) " points="4.14025104 0.409614245 4.14025104 8.17003091 8.00167602 8.17003091"></polygon>
                                                    <g id="t-link" transform="translate(4.397509, 4.500000) scale(-1, 1) translate(-4.397509, -4.500000) translate(0.897509, 0.000000)">
                                                        <polygon id="t" transform="translate(3.112487, 4.289823) rotate(18.000000) translate(-3.112487, -4.289823) " points="1.18177424 0.409614245 1.18177424 8.17003091 5.04319922 8.17003091"></polygon>
                                                    </g>
                                                </g>
                                            </g>
                                            <g id="c-link" transform="translate(7.238441, 10.110117) rotate(144.000000) translate(-7.238441, -10.110117) translate(2.238441, 5.610117)">
                                                <g id="c" transform="translate(-0.000000, 0.000000)">
                                                    <polygon id="t" transform="translate(6.070964, 4.289823) rotate(18.000000) translate(-6.070964, -4.289823) " points="4.14025104 0.409614245 4.14025104 8.17003091 8.00167602 8.17003091"></polygon>
                                                    <g id="t-link" transform="translate(4.397509, 4.500000) scale(-1, 1) translate(-4.397509, -4.500000) translate(0.897509, 0.000000)">
                                                        <polygon id="t" transform="translate(3.112487, 4.289823) rotate(18.000000) translate(-3.112487, -4.289823) " points="1.18177424 0.409614245 1.18177424 8.17003091 5.04319922 8.17003091"></polygon>
                                                    </g>
                                                </g>
                                            </g>
                                        </g>
                                    </g>
                                </g>
                            </g>
                            <g id="s-link" transform="translate(32.630507, 13.582498) rotate(216.000000) translate(-32.630507, -13.582498) translate(23.130507, 4.582498)">
                                <g id="s" transform="translate(-0.000000, 0.000000)">
                                    <g id="c" transform="translate(3.663573, 0.045119)">
                                        <polygon id="t" transform="translate(6.070964, 4.289823) rotate(18.000000) translate(-6.070964, -4.289823) " points="4.14025104 0.409614245 4.14025104 8.17003091 8.00167602 8.17003091"></polygon>
                                        <g id="t-link" transform="translate(4.397509, 4.500000) scale(-1, 1) translate(-4.397509, -4.500000) translate(0.897509, -0.000000)">
                                            <polygon id="t" transform="translate(3.112487, 4.289823) rotate(18.000000) translate(-3.112487, -4.289823) " points="1.18177424 0.409614245 1.18177424 8.17003091 5.04319922 8.17003091"></polygon>
                                        </g>
                                    </g>
                                    <g id="a" transform="translate(4.106457, 0.082401)">
                                        <g id="c-link" transform="translate(7.938569, 6.309889) rotate(72.000000) translate(-7.938569, -6.309889) translate(2.938569, 1.809889)">
                                            <g id="c" transform="translate(0.000000, -0.000000)">
                                                <polygon id="t" transform="translate(6.070964, 4.289823) rotate(18.000000) translate(-6.070964, -4.289823) " points="4.14025104 0.409614245 4.14025104 8.17003091 8.00167602 8.17003091"></polygon>
                                                <g id="t-link" transform="translate(4.397509, 4.500000) scale(-1, 1) translate(-4.397509, -4.500000) translate(0.897509, 0.000000)">
                                                    <polygon id="t" transform="translate(3.112487, 4.289823) rotate(18.000000) translate(-3.112487, -4.289823) " points="1.18177424 0.409614245 1.18177424 8.17003091 5.04319922 8.17003091"></polygon>
                                                </g>
                                            </g>
                                        </g>
                                        <g id="c-link" transform="translate(7.238441, 10.110117) rotate(144.000000) translate(-7.238441, -10.110117) translate(2.238441, 5.610117)">
                                            <g id="c" transform="translate(-0.000000, -0.000000)">
                                                <polygon id="t" transform="translate(6.070964, 4.289823) rotate(18.000000) translate(-6.070964, -4.289823) " points="4.14025104 0.409614245 4.14025104 8.17003091 8.00167602 8.17003091"></polygon>
                                                <g id="t-link" transform="translate(4.397509, 4.500000) scale(-1, 1) translate(-4.397509, -4.500000) translate(0.897509, 0.000000)">
                                                    <polygon id="t" transform="translate(3.112487, 4.289823) rotate(18.000000) translate(-3.112487, -4.289823) " points="1.18177424 0.409614245 1.18177424 8.17003091 5.04319922 8.17003091"></polygon>
                                                </g>
                                            </g>
                                        </g>
                                    </g>
                                    <g id="a-link" transform="translate(7.076676, 8.582401) scale(-1, 1) translate(-7.076676, -8.582401) translate(0.076676, 0.082401)">
                                        <g id="a" transform="translate(0.000000, 0.000000)">
                                            <g id="c-link" transform="translate(7.938569, 6.309889) rotate(72.000000) translate(-7.938569, -6.309889) translate(2.938569, 1.809889)">
                                                <g id="c" transform="translate(0.000000, 0.000000)">
                                                    <polygon id="t" transform="translate(6.070964, 4.289823) rotate(18.000000) translate(-6.070964, -4.289823) " points="4.14025104 0.409614245 4.14025104 8.17003091 8.00167602 8.17003091"></polygon>
                                                    <g id="t-link" transform="translate(4.397509, 4.500000) scale(-1, 1) translate(-4.397509, -4.500000) translate(0.897509, 0.000000)">
                                                        <polygon id="t" transform="translate(3.112487, 4.289823) rotate(18.000000) translate(-3.112487, -4.289823) " points="1.18177424 0.409614245 1.18177424 8.17003091 5.04319922 8.17003091"></polygon>
                                                    </g>
                                                </g>
                                            </g>
                                            <g id="c-link" transform="translate(7.238441, 10.110117) rotate(144.000000) translate(-7.238441, -10.110117) translate(2.238441, 5.610117)">
                                                <g id="c" transform="translate(0.000000, -0.000000)">
                                                    <polygon id="t" transform="translate(6.070964, 4.289823) rotate(18.000000) translate(-6.070964, -4.289823) " points="4.14025104 0.409614245 4.14025104 8.17003091 8.00167602 8.17003091"></polygon>
                                                    <g id="t-link" transform="translate(4.397509, 4.500000) scale(-1, 1) translate(-4.397509, -4.500000) translate(0.897509, 0.000000)">
                                                        <polygon id="t" transform="translate(3.112487, 4.289823) rotate(18.000000) translate(-3.112487, -4.289823) " points="1.18177424 0.409614245 1.18177424 8.17003091 5.04319922 8.17003091"></polygon>
                                                    </g>
                                                </g>
                                            </g>
                                        </g>
                                    </g>
                                </g>
                            </g>
                            <g id="s-link" transform="translate(13.838598, 31.064709) rotate(144.000000) translate(-13.838598, -31.064709) translate(3.838598, 21.564709)">
                                <g id="s" transform="translate(0.176151, 0.215563)">
                                    <g id="c" transform="translate(3.663573, 0.045119)">
                                        <polygon id="t" transform="translate(6.070964, 4.289823) rotate(18.000000) translate(-6.070964, -4.289823) " points="4.14025104 0.409614245 4.14025104 8.17003091 8.00167602 8.17003091"></polygon>
                                        <g id="t-link" transform="translate(4.397509, 4.500000) scale(-1, 1) translate(-4.397509, -4.500000) translate(0.897509, 0.000000)">
                                            <polygon id="t" transform="translate(3.112487, 4.289823) rotate(18.000000) translate(-3.112487, -4.289823) " points="1.18177424 0.409614245 1.18177424 8.17003091 5.04319922 8.17003091"></polygon>
                                        </g>
                                    </g>
                                    <g id="a" transform="translate(4.106457, 0.082401)">
                                        <g id="c-link" transform="translate(7.938569, 6.309889) rotate(72.000000) translate(-7.938569, -6.309889) translate(2.938569, 1.809889)">
                                            <g id="c" transform="translate(-0.000000, 0.000000)">
                                                <polygon id="t" transform="translate(6.070964, 4.289823) rotate(18.000000) translate(-6.070964, -4.289823) " points="4.14025104 0.409614245 4.14025104 8.17003091 8.00167602 8.17003091"></polygon>
                                                <g id="t-link" transform="translate(4.397509, 4.500000) scale(-1, 1) translate(-4.397509, -4.500000) translate(0.897509, -0.000000)">
                                                    <polygon id="t" transform="translate(3.112487, 4.289823) rotate(18.000000) translate(-3.112487, -4.289823) " points="1.18177424 0.409614245 1.18177424 8.17003091 5.04319922 8.17003091"></polygon>
                                                </g>
                                            </g>
                                        </g>
                                        <g id="c-link" transform="translate(7.238441, 10.110117) rotate(144.000000) translate(-7.238441, -10.110117) translate(2.238441, 5.610117)">
                                            <g id="c" transform="translate(0.000000, -0.000000)">
                                                <polygon id="t" transform="translate(6.070964, 4.289823) rotate(18.000000) translate(-6.070964, -4.289823) " points="4.14025104 0.409614245 4.14025104 8.17003091 8.00167602 8.17003091"></polygon>
                                                <g id="t-link" transform="translate(4.397509, 4.500000) scale(-1, 1) translate(-4.397509, -4.500000) translate(0.897509, 0.000000)">
                                                    <polygon id="t" transform="translate(3.112487, 4.289823) rotate(18.000000) translate(-3.112487, -4.289823) " points="1.18177424 0.409614245 1.18177424 8.17003091 5.04319922 8.17003091"></polygon>
                                                </g>
                                            </g>
                                        </g>
                                    </g>
                                    <g id="a-link" transform="translate(7.076676, 8.582401) scale(-1, 1) translate(-7.076676, -8.582401) translate(0.076676, 0.082401)">
                                        <g id="a" transform="translate(0.000000, 0.000000)">
                                            <g id="c-link" transform="translate(7.938569, 6.309889) rotate(72.000000) translate(-7.938569, -6.309889) translate(2.938569, 1.809889)">
                                                <g id="c" transform="translate(-0.000000, -0.000000)">
                                                    <polygon id="t" transform="translate(6.070964, 4.289823) rotate(18.000000) translate(-6.070964, -4.289823) " points="4.14025104 0.409614245 4.14025104 8.17003091 8.00167602 8.17003091"></polygon>
                                                    <g id="t-link" transform="translate(4.397509, 4.500000) scale(-1, 1) translate(-4.397509, -4.500000) translate(0.897509, -0.000000)">
                                                        <polygon id="t" transform="translate(3.112487, 4.289823) rotate(18.000000) translate(-3.112487, -4.289823) " points="1.18177424 0.409614245 1.18177424 8.17003091 5.04319922 8.17003091"></polygon>
                                                    </g>
                                                </g>
                                            </g>
                                            <g id="c-link" transform="translate(7.238441, 10.110117) rotate(144.000000) translate(-7.238441, -10.110117) translate(2.238441, 5.610117)">
                                                <g id="c" transform="translate(0.000000, 0.000000)">
                                                    <polygon id="t" transform="translate(6.070964, 4.289823) rotate(18.000000) translate(-6.070964, -4.289823) " points="4.14025104 0.409614245 4.14025104 8.17003091 8.00167602 8.17003091"></polygon>
                                                    <g id="t-link" transform="translate(4.397509, 4.500000) scale(-1, 1) translate(-4.397509, -4.500000) translate(0.897509, -0.000000)">
                                                        <polygon id="t" transform="translate(3.112487, 4.289823) rotate(18.000000) translate(-3.112487, -4.289823) " points="1.18177424 0.409614245 1.18177424 8.17003091 5.04319922 8.17003091"></polygon>
                                                    </g>
                                                </g>
                                            </g>
                                        </g>
                                    </g>
                                </g>
                            </g>
                            <g id="s-link" transform="translate(14.291822, 79.151109) rotate(72.000000) translate(-14.291822, -79.151109) translate(4.791822, 70.151109)">
                                <g id="s" transform="translate(-0.000000, -0.000000)">
                                    <g id="c" transform="translate(3.663573, 0.045119)">
                                        <polygon id="t" transform="translate(6.070964, 4.289823) rotate(18.000000) translate(-6.070964, -4.289823) " points="4.14025104 0.409614245 4.14025104 8.17003091 8.00167602 8.17003091"></polygon>
                                        <g id="t-link" transform="translate(4.397509, 4.500000) scale(-1, 1) translate(-4.397509, -4.500000) translate(0.897509, -0.000000)">
                                            <polygon id="t" transform="translate(3.112487, 4.289823) rotate(18.000000) translate(-3.112487, -4.289823) " points="1.18177424 0.409614245 1.18177424 8.17003091 5.04319922 8.17003091"></polygon>
                                        </g>
                                    </g>
                                    <g id="a" transform="translate(4.106457, 0.082401)">
                                        <g id="c-link" transform="translate(7.938569, 6.309889) rotate(72.000000) translate(-7.938569, -6.309889) translate(2.938569, 1.809889)">
                                            <g id="c" transform="translate(-0.000000, -0.000000)">
                                                <polygon id="t" transform="translate(6.070964, 4.289823) rotate(18.000000) translate(-6.070964, -4.289823) " points="4.14025104 0.409614245 4.14025104 8.17003091 8.00167602 8.17003091"></polygon>
                                                <g id="t-link" transform="translate(4.397509, 4.500000) scale(-1, 1) translate(-4.397509, -4.500000) translate(0.897509, 0.000000)">
                                                    <polygon id="t" transform="translate(3.112487, 4.289823) rotate(18.000000) translate(-3.112487, -4.289823) " points="1.18177424 0.409614245 1.18177424 8.17003091 5.04319922 8.17003091"></polygon>
                                                </g>
                                            </g>
                                        </g>
                                        <g id="c-link" transform="translate(7.238441, 10.110117) rotate(144.000000) translate(-7.238441, -10.110117) translate(2.238441, 5.610117)">
                                            <g id="c" transform="translate(0.000000, -0.000000)">
                                                <polygon id="t" transform="translate(6.070964, 4.289823) rotate(18.000000) translate(-6.070964, -4.289823) " points="4.14025104 0.409614245 4.14025104 8.17003091 8.00167602 8.17003091"></polygon>
                                                <g id="t-link" transform="translate(4.397509, 4.500000) scale(-1, 1) translate(-4.397509, -4.500000) translate(0.897509, 0.000000)">
                                                    <polygon id="t" transform="translate(3.112487, 4.289823) rotate(18.000000) translate(-3.112487, -4.289823) " points="1.18177424 0.409614245 1.18177424 8.17003091 5.04319922 8.17003091"></polygon>
                                                </g>
                                            </g>
                                        </g>
                                    </g>
                                    <g id="a-link" transform="translate(7.076676, 8.582401) scale(-1, 1) translate(-7.076676, -8.582401) translate(0.076676, 0.082401)">
                                        <g id="a" transform="translate(0.000000, 0.000000)">
                                            <g id="c-link" transform="translate(7.938569, 6.309889) rotate(72.000000) translate(-7.938569, -6.309889) translate(2.938569, 1.809889)">
                                                <g id="c" transform="translate(0.000000, 0.000000)">
                                                    <polygon id="t" transform="translate(6.070964, 4.289823) rotate(18.000000) translate(-6.070964, -4.289823) " points="4.14025104 0.409614245 4.14025104 8.17003091 8.00167602 8.17003091"></polygon>
                                                    <g id="t-link" transform="translate(4.397509, 4.500000) scale(-1, 1) translate(-4.397509, -4.500000) translate(0.897509, 0.000000)">
                                                        <polygon id="t" transform="translate(3.112487, 4.289823) rotate(18.000000) translate(-3.112487, -4.289823) " points="1.18177424 0.409614245 1.18177424 8.17003091 5.04319922 8.17003091"></polygon>
                                                    </g>
                                                </g>
                                            </g>
                                            <g id="c-link" transform="translate(7.238441, 10.110117) rotate(144.000000) translate(-7.238441, -10.110117) translate(2.238441, 5.610117)">
                                                <g id="c" transform="translate(0.000000, 0.000000)">
                                                    <polygon id="t" transform="translate(6.070964, 4.289823) rotate(18.000000) translate(-6.070964, -4.289823) " points="4.14025104 0.409614245 4.14025104 8.17003091 8.00167602 8.17003091"></polygon>
                                                    <g id="t-link" transform="translate(4.397509, 4.500000) scale(-1, 1) translate(-4.397509, -4.500000) translate(0.897509, -0.000000)">
                                                        <polygon id="t" transform="translate(3.112487, 4.289823) rotate(18.000000) translate(-3.112487, -4.289823) " points="1.18177424 0.409614245 1.18177424 8.17003091 5.04319922 8.17003091"></polygon>
                                                    </g>
                                                </g>
                                            </g>
                                        </g>
                                    </g>
                                </g>
                            </g>
                            <g id="s-link" transform="translate(31.252377, 96.194166) rotate(72.000000) translate(-31.252377, -96.194166) translate(21.752377, 87.194166)">
                                <g id="s" transform="translate(0.000000, -0.000000)">
                                    <g id="c" transform="translate(3.663573, 0.045119)">
                                        <polygon id="t" transform="translate(6.070964, 4.289823) rotate(18.000000) translate(-6.070964, -4.289823) " points="4.14025104 0.409614245 4.14025104 8.17003091 8.00167602 8.17003091"></polygon>
                                        <g id="t-link" transform="translate(4.397509, 4.500000) scale(-1, 1) translate(-4.397509, -4.500000) translate(0.897509, -0.000000)">
                                            <polygon id="t" transform="translate(3.112487, 4.289823) rotate(18.000000) translate(-3.112487, -4.289823) " points="1.18177424 0.409614245 1.18177424 8.17003091 5.04319922 8.17003091"></polygon>
                                        </g>
                                    </g>
                                    <g id="a" transform="translate(4.106457, 0.082401)">
                                        <g id="c-link" transform="translate(7.938569, 6.309889) rotate(72.000000) translate(-7.938569, -6.309889) translate(2.938569, 1.809889)">
                                            <g id="c" transform="translate(-0.000000, -0.000000)">
                                                <polygon id="t" transform="translate(6.070964, 4.289823) rotate(18.000000) translate(-6.070964, -4.289823) " points="4.14025104 0.409614245 4.14025104 8.17003091 8.00167602 8.17003091"></polygon>
                                                <g id="t-link" transform="translate(4.397509, 4.500000) scale(-1, 1) translate(-4.397509, -4.500000) translate(0.897509, 0.000000)">
                                                    <polygon id="t" transform="translate(3.112487, 4.289823) rotate(18.000000) translate(-3.112487, -4.289823) " points="1.18177424 0.409614245 1.18177424 8.17003091 5.04319922 8.17003091"></polygon>
                                                </g>
                                            </g>
                                        </g>
                                        <g id="c-link" transform="translate(7.238441, 10.110117) rotate(144.000000) translate(-7.238441, -10.110117) translate(2.238441, 5.610117)">
                                            <g id="c" transform="translate(0.000000, -0.000000)">
                                                <polygon id="t" transform="translate(6.070964, 4.289823) rotate(18.000000) translate(-6.070964, -4.289823) " points="4.14025104 0.409614245 4.14025104 8.17003091 8.00167602 8.17003091"></polygon>
                                                <g id="t-link" transform="translate(4.397509, 4.500000) scale(-1, 1) translate(-4.397509, -4.500000) translate(0.897509, 0.000000)">
                                                    <polygon id="t" transform="translate(3.112487, 4.289823) rotate(18.000000) translate(-3.112487, -4.289823) " points="1.18177424 0.409614245 1.18177424 8.17003091 5.04319922 8.17003091"></polygon>
                                                </g>
                                            </g>
                                        </g>
                                    </g>
                                    <g id="a-link" transform="translate(7.076676, 8.582401) scale(-1, 1) translate(-7.076676, -8.582401) translate(0.076676, 0.082401)">
                                        <g id="a" transform="translate(0.000000, 0.000000)">
                                            <g id="c-link" transform="translate(7.938569, 6.309889) rotate(72.000000) translate(-7.938569, -6.309889) translate(2.938569, 1.809889)">
                                                <g id="c" transform="translate(0.000000, -0.000000)">
                                                    <polygon id="t" transform="translate(6.070964, 4.289823) rotate(18.000000) translate(-6.070964, -4.289823) " points="4.14025104 0.409614245 4.14025104 8.17003091 8.00167602 8.17003091"></polygon>
                                                    <g id="t-link" transform="translate(4.397509, 4.500000) scale(-1, 1) translate(-4.397509, -4.500000) translate(0.897509, -0.000000)">
                                                        <polygon id="t" transform="translate(3.112487, 4.289823) rotate(18.000000) translate(-3.112487, -4.289823) " points="1.18177424 0.409614245 1.18177424 8.17003091 5.04319922 8.17003091"></polygon>
                                                    </g>
                                                </g>
                                            </g>
                                            <g id="c-link" transform="translate(7.238441, 10.110117) rotate(144.000000) translate(-7.238441, -10.110117) translate(2.238441, 5.610117)">
                                                <g id="c" transform="translate(-0.000000, 0.000000)">
                                                    <polygon id="t" transform="translate(6.070964, 4.289823) rotate(18.000000) translate(-6.070964, -4.289823) " points="4.14025104 0.409614245 4.14025104 8.17003091 8.00167602 8.17003091"></polygon>
                                                    <g id="t-link" transform="translate(4.397509, 4.500000) scale(-1, 1) translate(-4.397509, -4.500000) translate(0.897509, -0.000000)">
                                                        <polygon id="t" transform="translate(3.112487, 4.289823) rotate(18.000000) translate(-3.112487, -4.289823) " points="1.18177424 0.409614245 1.18177424 8.17003091 5.04319922 8.17003091"></polygon>
                                                    </g>
                                                </g>
                                            </g>
                                        </g>
                                    </g>
                                </g>
                            </g>
                        </g>
                    </g>
                </g>
                <g id="Group-2" transform="translate(44.093220, 45.625000)">
                    <rect id="Rectangle" fill="#333132" x="0" y="0" width="23" height="22.9222973"></rect>
                    <path d="M9.64092293,15.0310059 L5,15.0310059 L5,7 L9.64092293,7 L9.64092293,8.39526367 L6.70865334,8.39526367 L6.70865334,10.1585693 L9.43698689,10.1585693 L9.43698689,11.553833 L6.70865334,11.553833 L6.70865334,13.6247559 L9.64092293,13.6247559 L9.64092293,15.0310059 Z M17.8810414,7 L17.8810414,12.1965332 C17.8810414,12.7897979 17.7478413,13.3098122 17.481437,13.7565918 C17.2150328,14.2033714 16.8301303,14.5457752 16.3267181,14.7838135 C15.8233059,15.0218518 15.2280391,15.1408691 14.5408998,15.1408691 C13.504679,15.1408691 12.6999665,14.8762844 12.126738,14.3471069 C11.5535094,13.8179295 11.2668995,13.0937546 11.2668995,12.1745605 L11.2668995,7 L12.970041,7 L12.970041,11.9163818 C12.970041,12.5352814 13.0949736,12.9893784 13.3448424,13.2786865 C13.5947113,13.5679946 14.008091,13.7126465 14.584994,13.7126465 C15.1435244,13.7126465 15.5486365,13.5670791 15.8003426,13.2759399 C16.0520487,12.9848008 16.1778999,12.5279572 16.1778999,11.9053955 L16.1778999,7 L17.8810414,7 Z" id="EU" fill="#FFFFFF"></path>
                </g>
            </g>
        </g>
    </g>
</svg>