<svg xmlns="http://www.w3.org/2000/svg" viewBox="0 0 280.0654 559.4385">
  <defs>
    <style>
      .cls-1 {
        isolation: isolate;
      }

      .cls-2 {
        fill: #f9f7fe;
      }

      .cls-3 {
        fill: #0070c9;
      }

      .cls-4 {
        opacity: 0.2;
      }

      .cls-5 {
        fill: #a6a6a6;
      }

      .cls-6 {
        fill: #1a1a1c;
      }

      .cls-7 {
        fill-rule: evenodd;
      }

      .cls-8 {
        opacity: 0.4;
      }

      .cls-9 {
        mix-blend-mode: multiply;
      }
    </style>
  </defs>
  <title>Artboard 2</title>
  <g class="cls-1">
    <g id="Layer_1" data-name="Layer 1">
      <rect class="cls-2" x="17.5523" y="14.3608" width="245" height="56.5"/>
      <g>
        <path class="cls-3" d="M36.4913,62.2241h-1.125V53.6929h1.125Z"/>
        <path class="cls-3" d="M39.4034,55.8843l.0351.7969a2.31,2.31,0,0,1,1.8985-.9141q2.01,0,2.0273,2.2676v4.1894H42.28V58.0288a1.46,1.46,0,0,0-.3134-1.0137,1.2566,1.2566,0,0,0-.958-.3281,1.5644,1.5644,0,0,0-.9258.2813,1.9093,1.9093,0,0,0-.6211.7382v4.5176H38.378v-6.34Z"/>
        <path class="cls-3" d="M50.3663,59.1245a3.77,3.77,0,0,1-.668,2.335,2.1343,2.1343,0,0,1-1.793.8818,2.21,2.21,0,0,1-1.8574-.85l-.0527.7324h-.9961v-9h1.084v3.3574a2.1976,2.1976,0,0,1,1.81-.8144,2.1475,2.1475,0,0,1,1.8135.873,3.8833,3.8833,0,0,1,.6592,2.3907Zm-1.084-.123a2.93,2.93,0,0,0-.4277-1.711,1.4162,1.4162,0,0,0-1.23-.6035,1.5914,1.5914,0,0,0-1.541.9961v2.7422a1.6358,1.6358,0,0,0,1.5527.9961,1.4084,1.4084,0,0,0,1.2129-.6035A3.1147,3.1147,0,0,0,49.2823,59.0015Z"/>
        <path class="cls-3" d="M51.4444,58.9956a3.7453,3.7453,0,0,1,.3662-1.6758,2.7315,2.7315,0,0,1,1.02-1.1484,2.776,2.776,0,0,1,1.4913-.4043,2.6736,2.6736,0,0,1,2.0947.8965,3.4489,3.4489,0,0,1,.8,2.3847v.0762a3.7774,3.7774,0,0,1-.3545,1.6611,2.6915,2.6915,0,0,1-1.0137,1.1456,2.8072,2.8072,0,0,1-1.5146.41,2.6669,2.6669,0,0,1-2.0889-.8965,3.4314,3.4314,0,0,1-.8-2.373Zm1.09.1289a2.7123,2.7123,0,0,0,.4893,1.6934,1.6581,1.6581,0,0,0,2.6221-.0088,2.9663,2.9663,0,0,0,.4863-1.8135,2.7072,2.7072,0,0,0-.4951-1.69,1.574,1.574,0,0,0-1.3154-.6475,1.5567,1.5567,0,0,0-1.295.6387A2.9439,2.9439,0,0,0,52.5342,59.1245Z"/>
        <path class="cls-3" d="M60.5792,58.1987l1.4062-2.3144H63.251L61.1768,59.019l2.1387,3.2051H62.0616l-1.4649-2.373-1.4648,2.373h-1.26l2.1387-3.2051-2.0742-3.1347h1.2539Z"/>
      </g>
      <path class="cls-3" d="M29.7676,64.9839a.4262.4262,0,0,1-.2636-.0879l-6.1231-6.1523a.293.293,0,0,1,0-.4688l6.1231-6.1523a.4262.4262,0,0,1,.2636-.0879.3167.3167,0,0,1,.2344.0879l.586.5859a.28.28,0,0,1,.1171.2344.3645.3645,0,0,1-.1171.2636l-5.3028,5.3028L30.588,63.812a.3662.3662,0,0,1,.1171.2637.28.28,0,0,1-.1171.2344l-.586.5859A.3167.3167,0,0,1,29.7676,64.9839Z"/>
      <g class="cls-4">
        <path d="M211.5591,61.3433a.4263.4263,0,0,1,.0879-.2637l6.1524-6.1231a.2931.2931,0,0,1,.4687,0l6.1524,6.1231a.4263.4263,0,0,1,.0879.2637.3167.3167,0,0,1-.0879.2343l-.586.586a.28.28,0,0,1-.2343.1172.363.363,0,0,1-.2637-.1172l-5.3027-5.3028-5.3028,5.3028a.3663.3663,0,0,1-.2637.1172.28.28,0,0,1-.2343-.1172l-.586-.586A.3167.3167,0,0,1,211.5591,61.3433Z"/>
      </g>
      <path class="cls-3" d="M251.4088,55.7773a.4263.4263,0,0,1-.0879.2637l-6.1524,6.1231a.2929.2929,0,0,1-.4687,0l-6.1524-6.1231a.4263.4263,0,0,1-.0879-.2637.3167.3167,0,0,1,.0879-.2343l.586-.586a.28.28,0,0,1,.2343-.1172.363.363,0,0,1,.2637.1172l5.3027,5.3028,5.3028-5.3028a.3663.3663,0,0,1,.2636-.1172.28.28,0,0,1,.2344.1172l.586.586A.3167.3167,0,0,1,251.4088,55.7773Z"/>
      <g>
        <path class="cls-5" d="M279.9707,130.7646c-.0088-.0263-.0146-.0532-.0244-.0791a1.8042,1.8042,0,0,0-.2568-.458c-.0137-.0185-.0283-.0351-.043-.0526a1.7854,1.7854,0,0,0-.9531-.5992,1.86,1.86,0,0,0-.38-.05V52.0986c0-18.2026-1.8672-29.5224-13.3906-40.8183C253.7949.3712,237.7383,0,232.3,0H47.6348C42.1973,0,26.1406.3712,15.0117,11.28,3.4893,22.5762,1.6211,33.896,1.6211,52.0986V75.4224h-.33a1.2484,1.2484,0,0,0-.3027.0611v-.0216c-.0342.0083-.0625.03-.0957.041a1.1839,1.1839,0,0,0-.1982.0846,1.2482,1.2482,0,0,0-.209.14,1.2071,1.2071,0,0,0-.1485.1333,1.2744,1.2744,0,0,0-.1621.2408,1.1943,1.1943,0,0,0-.08.143A1.2638,1.2638,0,0,0,0,76.713V95.5693a1.2633,1.2633,0,0,0,.0947.4678,1.1893,1.1893,0,0,0,.08.1426,1.2813,1.2813,0,0,0,.1621.2413,1.2025,1.2025,0,0,0,.1485.1327,1.2216,1.2216,0,0,0,.209.1411,1.2383,1.2383,0,0,0,.1982.0846c.0332.0111.0615.0326.0957.0409v-.0215a1.2532,1.2532,0,0,0,.3027.0611h.33v18.5742h-.33a1.2579,1.2579,0,0,0-.3027.061v-.0215c-.0342.0083-.0625.03-.0957.041a1.2,1.2,0,0,0-.1982.0845,1.2548,1.2548,0,0,0-.209.1406,1.2153,1.2153,0,0,0-.1485.1333,1.2712,1.2712,0,0,0-.1621.2408,1.21,1.21,0,0,0-.08.143A1.2641,1.2641,0,0,0,0,116.7246V154.709a1.2637,1.2637,0,0,0,.0947.4678,1.1943,1.1943,0,0,0,.08.143,1.2672,1.2672,0,0,0,.1621.2407,1.2185,1.2185,0,0,0,.1494.1338,1.2427,1.2427,0,0,0,.2071.14,1.1893,1.1893,0,0,0,.2011.0859c.0323.0108.06.0318.0938.04v-.021A1.2531,1.2531,0,0,0,1.291,156h.33v10.7649c-.0442.0113-.09.0163-.1348.0272v-.0216c-.0341.0083-.0625.03-.0957.041a1.1832,1.1832,0,0,0-.1972.084,1.2623,1.2623,0,0,0-.211.1426,1.1675,1.1675,0,0,0-.1455.1308,1.3022,1.3022,0,0,0-.165.2438,1.2574,1.2574,0,0,0-.0781.1405,1.2685,1.2685,0,0,0-.0948.4683v37.9844a1.2679,1.2679,0,0,0,.0948.4682,1.1029,1.1029,0,0,0,.0781.1406,1.2893,1.2893,0,0,0,.165.2438,1.288,1.288,0,0,0,.1455.1317,1.2416,1.2416,0,0,0,.4092.2267c.0332.0106.0606.0316.0947.04v-.021c.0444.0109.0906.0158.1348.0273V507.3408c0,18.2031,1.8682,29.5215,13.3906,40.8184,11.1289,10.9082,27.1856,11.2812,32.6231,11.2793H232.3c5.4385.0019,21.4951-.3711,32.6231-11.2793,11.5234-11.2969,13.3906-22.6153,13.3906-40.8184V193.3961a1.7835,1.7835,0,0,0,1.333-.649c.0147-.0181.0293-.0346.043-.0528a1.8093,1.8093,0,0,0,.2568-.458c.01-.0263.0156-.0526.0244-.0791a1.7741,1.7741,0,0,0,.0947-.5508V131.3149A1.77,1.77,0,0,0,279.9707,130.7646ZM261.5752,507.3408c0,15.2461-1.2646,21.9-8.37,28.8653-3.0215,2.9628-9.1,6.4942-20.8975,6.4942H47.6348c-11.8018.0018-17.8828-3.5314-20.9043-6.4942-7.1065-6.9649-8.3711-13.6192-8.3711-28.8653V52.0986c0-15.247,1.2646-21.9,8.37-28.8657,3.0225-2.9623,9.1016-6.4941,20.8975-6.4941H69.2461c1.0713.1367,2.627.7818,2.7813,3.3535.2119,3.5312.6464,8.1885,4.1445,11.77a13.5042,13.5042,0,0,0,9.8223,4.0752H194.4883a13.5006,13.5006,0,0,0,9.8213-4.0752c3.5-3.5816,3.9336-8.2389,4.1465-11.77.1543-2.5717,1.709-3.2168,2.78-3.3535H232.3c11.8028-.0009,17.8828,3.5312,20.9053,6.4941,7.1055,6.9658,8.37,13.6192,8.37,28.8657Z"/>
        <path d="M263.335,12.8994C258.3877,8.0493,248.9893,2.2676,232.3,2.2676H47.624c-16.6777,0-26.0771,5.7817-31.0244,10.6318C5.791,23.4957,3.8887,33.9819,3.8887,52.0986V507.3408c0,18.1162,1.9023,28.6026,12.71,39.1992,4.9482,4.85,14.3427,10.6309,31.0361,10.6309h184.706c16.6524,0,26.0469-5.7813,30.9942-10.6309,10.8086-10.5966,12.7109-21.083,12.7109-39.1992V52.0986C276.0459,33.9814,274.1436,23.4946,263.335,12.8994Zm-1.76,494.4414c0,15.2461-1.2646,21.9-8.37,28.8653-3.0215,2.9628-9.1,6.4942-20.8975,6.4942H47.6348c-11.8018.0018-17.8828-3.5314-20.9043-6.4942-7.1065-6.9649-8.3711-13.6192-8.3711-28.8653V52.0986c0-15.247,1.2646-21.9,8.37-28.8657,3.0225-2.9623,9.1016-6.4941,20.8975-6.4941H69.2461c1.0713.1367,2.627.7818,2.7813,3.3535.2119,3.5312.6464,8.1885,4.1445,11.77a13.5042,13.5042,0,0,0,9.8223,4.0752H194.4883a13.5006,13.5006,0,0,0,9.8213-4.0752c3.5-3.5816,3.9336-8.2389,4.1465-11.77.1543-2.5717,1.709-3.2168,2.78-3.3535H232.3c11.8028-.0009,17.8828,3.5312,20.9053,6.4941,7.1055,6.9658,8.37,13.6192,8.37,28.8657Z"/>
        <path class="cls-6" d="M174.334,22.0406a4.26,4.26,0,1,1-4.26-4.26A4.26,4.26,0,0,1,174.334,22.0406Z"/>
        <path class="cls-6" d="M157.0225,22.0406a2.2742,2.2742,0,0,1-2.2735,2.274H124.9541a2.2744,2.2744,0,0,1-2.2744-2.274h0a2.2744,2.2744,0,0,1,2.2744-2.2739H154.749a2.2742,2.2742,0,0,1,2.2735,2.2739Z"/>
        <g>
          <g>
            <path d="M42.0205,33.4127a1.1279,1.1279,0,0,0,1.1573.6543c1.2666,0,1.7373-1.2251,1.6962-2.7271h-.0634a1.75,1.75,0,0,1-1.7481,1.0571,2.22,2.22,0,0,1-2.2871-2.3813,2.3545,2.3545,0,0,1,2.5283-2.4337c1.2969,0,2.6006.77,2.6006,3.58,0,2.5381-.8838,3.8467-2.7471,3.8467a1.9807,1.9807,0,0,1-2.1992-1.5962Zm1.2246-4.8887a1.39,1.39,0,0,0-1.4121,1.4917,1.4337,1.4337,0,1,0,2.8672.021A1.3971,1.3971,0,0,0,43.2451,28.524Z"/>
            <path d="M48.2617,29.8536a.8086.8086,0,1,1,0,1.6172.809.809,0,0,1,0-1.6172Zm0,3.5069a.8059.8059,0,1,1,0,1.6118.8062.8062,0,0,1,0-1.6118Z"/>
            <path d="M54.9619,27.734v4.7729h.916v.9683h-.916V34.878h-1.02V33.4752h-3.47v-.9839c.8789-1.5908,1.92-3.1714,2.915-4.7573Zm-1.02,4.7729V28.6656h-.0576c-.8008,1.1983-1.6543,2.5279-2.376,3.7944v.0469Z"/>
            <path d="M58.8213,34.878V28.9063h-.0527L57.12,30.084v-1.11l1.7012-1.24h1.0625v7.144Z"/>
          </g>
          <g>
            <path d="M218.477,27.7369h.9673a.3233.3233,0,0,1,.3233.3233v6.4965a.3223.3223,0,0,1-.3223.3223h-.9687a.3223.3223,0,0,1-.3223-.3223V28.06A.3227.3227,0,0,1,218.477,27.7369Z"/>
            <path d="M215.5288,29.479h.9684a.3222.3222,0,0,1,.3222.3222v4.7549a.3228.3228,0,0,1-.3228.3228h-.9672a.3233.3233,0,0,1-.3233-.3233V29.8017A.3227.3227,0,0,1,215.5288,29.479Z"/>
            <path d="M212.58,30.9313h.9683a.3222.3222,0,0,1,.3222.3222v3.3028a.3227.3227,0,0,1-.3227.3227H212.58a.3232.3232,0,0,1-.3232-.3232V31.254A.3227.3227,0,0,1,212.58,30.9313Z"/>
            <path d="M209.63,32.0929h.9683a.3223.3223,0,0,1,.3223.3223v2.1411a.3227.3227,0,0,1-.3227.3227h-.9674a.3232.3232,0,0,1-.3232-.3232v-2.14A.3227.3227,0,0,1,209.63,32.0929Z"/>
          </g>
          <g>
            <path class="cls-7" d="M224.6406,30.9947,223.3545,29.74a7.1427,7.1427,0,0,1,10.0244.0035c-.4179.4209-.8349.8417-1.2666,1.2757a5.39,5.39,0,0,0-7.4717-.0243Z"/>
            <path class="cls-7" d="M226.4766,32.8609c-.4268-.4179-.85-.832-1.2735-1.2465a4.511,4.511,0,0,1,6.3008-.0171q-.6225.6355-1.2461,1.2715A2.795,2.795,0,0,0,226.4766,32.8609Z"/>
            <path class="cls-7" d="M229.6016,33.5q-.63.6388-1.2383,1.256c-.4189-.417-.833-.83-1.2471-1.2432A1.84,1.84,0,0,1,229.6016,33.5Z"/>
          </g>
          <g>
            <path class="cls-8" d="M249.4346,27.5572H238.4238a1.605,1.605,0,0,0-1.6035,1.6035v4.2945a1.6048,1.6048,0,0,0,1.6035,1.603h11.0108a1.6054,1.6054,0,0,0,1.6035-1.603V29.1607A1.6055,1.6055,0,0,0,249.4346,27.5572Zm.9629,5.898a.9639.9639,0,0,1-.9629.9628H238.4238a.9638.9638,0,0,1-.9628-.9628V29.1607a.9635.9635,0,0,1,.9628-.9628h11.0108a.9636.9636,0,0,1,.9629.9628Z"/>
            <path d="M238.4233,28.838h11.0113a.3232.3232,0,0,1,.3232.3232v4.294a.3227.3227,0,0,1-.3227.3227H238.4238a.3232.3232,0,0,1-.3232-.3232v-4.294A.3227.3227,0,0,1,238.4233,28.838Z"/>
            <path d="M252.5723,31.3077a.8636.8636,0,0,1-.8633.8638V30.4439A.8637.8637,0,0,1,252.5723,31.3077Z"/>
          </g>
        </g>
      </g>
      <g class="cls-9">
        <rect class="cls-2" x="15.5523" y="69.8608" width="247" height="1"/>
      </g>
    </g>
  </g>
</svg>
