<?xml version="1.0" encoding="utf-8"?>
<!-- Generator: Adobe Illustrator 21.0.2, SVG Export Plug-In . SVG Version: 6.00 Build 0)  -->
<svg version="1.1" id="mcu-logo" xmlns="http://www.w3.org/2000/svg" xmlns:xlink="http://www.w3.org/1999/xlink" x="0px" y="0px"
	 viewBox="0 0 620 40" style="enable-background:new 0 0 620 40;" xml:space="preserve">
<path class="morning" d="M0.5,0h5.1L19,29.3L32.3,0h5.1v40h-4V6.1L20.8,34.2h-3.7L4.4,6.1V40H0.5V0z M53.2,32V8c0-5.4,2.6-8,8-8h12.6
	c5.4,0,8,2.6,8,8v24c0,5.4-2.6,8-8,8H61.2C55.7,40,53.2,37.4,53.2,32z M73.6,36.2c3,0,4.1-1.1,4.1-4.1V7.9c0-3-1.1-4.1-4.1-4.1H61.4
	c-3,0-4.1,1.1-4.1,4.1v24.2c0,3,1.1,4.1,4.1,4.1H73.6z M126.3,40h-4.6l-8.9-16.5h-11.2V40h-4.1V0H117c5.4,0,8,2.6,8,8v7.5
	c0,5.3-2.5,7.9-7.7,8L126.3,40z M116.8,19.7c3,0,4.1-1.1,4.1-4.1V7.9c0-3-1.1-4.1-4.1-4.1h-15.2v15.9H116.8z M140.8,0h4.6l21.1,33.8
	V0h3.9v40H166L144.6,5.7V40h-3.9L140.8,0L140.8,0z M187,0h4.1v40H187V0z M207.8,0h4.6l21.1,33.8V0h3.9v40h-4.2L211.7,5.7V40h-3.9V0z
	 M253,32V8c0-5.4,2.6-8,8-8h12.3c5.4,0,8,2.6,8,8v3.8h-4.1V7.9c0-3-1.1-4.1-4.1-4.1h-11.8c-3,0-4.1,1.1-4.1,4.1v24.2
	c0,3,1.1,4.1,4.1,4.1h11.8c3,0,4.1-1.1,4.1-4.1V23h-10.5v-3.8h14.6V32c0,5.4-2.6,8-8,8H261C255.6,40,253,37.4,253,32z"/>
<path class="chalkup" d="M314.4,32V8c0-5.4,2.6-8,8-8h13.3c5.4,0,8,2.6,8,8v6.5h-8.2V8.7c0-0.9-0.3-1.1-1.1-1.1h-10.5
	c-0.9,0-1.1,0.3-1.1,1.1v22.6c0,0.9,0.3,1.1,1.1,1.1h10.5c0.9,0,1.1-0.3,1.1-1.1v-5.8h8.2V32c0,5.4-2.6,8-8,8h-13.3
	C316.9,40,314.4,37.4,314.4,32z M356.7,0h8.2v15.8h14.2V0h8.2v40h-8.2V23.3h-14.2V40h-8.2V0z M423.4,31.3h-13.7l-2.5,8.7h-8.7
	l12.2-40h12l12.2,40h-9L423.4,31.3z M421.3,23.8L416.5,7l-4.7,16.8H421.3z M446.1,0h8.2v32.5h17.3V40h-25.5V0z M506.9,40l-9.4-17.3
	l-5.8,7.4V40h-8.1V0h8.1v18.7L505.9,0h9.7L503,15.8L516.2,40H506.9z M546,32V0h8.2v31.3c0,0.9,0.3,1.1,1.1,1.1h11.2
	c0.9,0,1.1-0.3,1.1-1.1V0h8.2v32c0,5.4-2.6,8-8,8h-14C548.6,40,546,37.4,546,32z M590.3,0h21.2c5.4,0,8,2.6,8,8v10.6
	c0,5.4-2.6,8-8,8h-12.9V40h-8.2L590.3,0L590.3,0z M610.1,19.1c0.9,0,1.1-0.3,1.1-1.1V8.7c0-0.9-0.3-1.1-1.1-1.1h-11.6v11.5H610.1z"
	/>
</svg>
